ffmpeg started on 2025-07-06 at 17:49:48
Report written to "D:\Convert\FFMetrics\reports\psnr_report-6.txt"
Log level: 32
Command line:
ffmpeg -hide_banner -nostdin -i "G:\\\xc0\xed\xe8\xec\xe5\\\xce\xed\xe3\xee\xe8\xed\xe3\xe8\\!_37_\xc7\xe8\xec\xe0_2025\\JamClub\\\xc3\xee\xeb\xf3\xe1\xe0\xff \xf8\xea\xe0\xf2\xf3\xeb\xea\xe0\\JamClub_Ao_no_Hako_11_1080p_HEVC.mkv" -i "G:\\\xc0\xed\xe8\xec\xe5\\\xce\xed\xe3\xee\xe8\xed\xe3\xe8\\!_37_\xc7\xe8\xec\xe0_2025\\JamClub\\\xc3\xee\xeb\xf3\xe1\xe0\xff \xf8\xea\xe0\xf2\xf3\xeb\xea\xe0\\JamClub_Ao_no_Hako_11_1080p.mp4" -lavfi "[0:v]settb=AVTB,setpts=PTS-STARTPTS,format=pix_fmts=yuv420p10,fps=24000/1001,scale=1920:1080:flags=bicubic[main];[1:v]settb=AVTB,setpts=PTS-STARTPTS,format=pix_fmts=yuv420p,fps=24000/1001,scale=1920:1080:flags=bicubic[ref];[main][ref]psnr=eof_action=endall:stats_file='D\\:/Convert/FFMetrics/logs/psnr_logfile-6.txt'" -f null -
Input #0, matroska,webm, from 'G:\Аниме\Онгоинги\!_37_Зима_2025\JamClub\Голубая шкатулка\JamClub_Ao_no_Hako_11_1080p_HEVC.mkv':
  Metadata:
    COMPATIBLE_BRANDS: isomiso2avc1mp41
    MAJOR_BRAND     : isom
    MINOR_VERSION   : 512
    ENCODER         : Lavf61.7.100
  Duration: 00:23:59.25, start: -0.001000, bitrate: 1194 kb/s
  Stream #0:0: Video: hevc (Main 10), yuv420p10le(tv, bt709, progressive), 1920x1080 [SAR 1:1 DAR 16:9], 23.98 fps, 23.98 tbr, 1k tbn (default)
      Metadata:
        HANDLER_NAME    : VideoHandler
        VENDOR_ID       : [0][0][0][0]
        ENCODER         : Lavc61.19.100 libx265
        BPS             : 997042
        DURATION        : 00:23:59.187708333
        NUMBER_OF_FRAMES: 34506
        NUMBER_OF_BYTES : 179366264
        _STATISTICS_WRITING_APP: mkvpropedit v66.0.0 ('Josie') 64-bit
        _STATISTICS_WRITING_DATE_UTC: 2025-07-05 09:33:04
        _STATISTICS_TAGS: BPS DURATION NUMBER_OF_FRAMES NUMBER_OF_BYTES
  Stream #0:1(eng): Audio: aac (LC), 48000 Hz, stereo, fltp (default)
      Metadata:
        HANDLER_NAME    : SoundHandler
        VENDOR_ID       : [0][0][0][0]
        ENCODER         : Lavc61.19.100 aac
        BPS             : 193339
        DURATION        : 00:23:59.213000000
        NUMBER_OF_FRAMES: 67464
        NUMBER_OF_BYTES : 34782167
        _STATISTICS_WRITING_APP: mkvpropedit v66.0.0 ('Josie') 64-bit
        _STATISTICS_WRITING_DATE_UTC: 2025-07-05 09:33:04
        _STATISTICS_TAGS: BPS DURATION NUMBER_OF_FRAMES NUMBER_OF_BYTES
Input #1, mov,mp4,m4a,3gp,3g2,mj2, from 'G:\Аниме\Онгоинги\!_37_Зима_2025\JamClub\Голубая шкатулка\JamClub_Ao_no_Hako_11_1080p.mp4':
  Metadata:
    major_brand     : isom
    minor_version   : 512
    compatible_brands: isomiso2avc1mp41
    encoder         : Lavf60.16.100
  Duration: 00:23:59.23, start: 0.000000, bitrate: 4726 kb/s
  Stream #1:0[0x1](und): Video: h264 (High) (avc1 / 0x31637661), yuv420p(progressive), 1920x1080 [SAR 1:1 DAR 16:9], 4528 kb/s, 23.98 fps, 23.98 tbr, 90k tbn (default)
      Metadata:
        handler_name    : VideoHandler
        vendor_id       : [0][0][0][0]
  Stream #1:1[0x2](eng): Audio: aac (LC) (mp4a / 0x6134706D), 48000 Hz, stereo, fltp, 191 kb/s (default)
      Metadata:
        handler_name    : SoundHandler
        vendor_id       : [0][0][0][0]
Stream mapping:
  Stream #0:0 (hevc) -> settb:default
  Stream #1:0 (h264) -> settb:default
  psnr:default -> Stream #0:0 (wrapped_avframe)
  Stream #0:1 -> #0:1 (aac (native) -> pcm_s16le (native))
Output #0, null, to 'pipe:':
  Metadata:
    COMPATIBLE_BRANDS: isomiso2avc1mp41
    MAJOR_BRAND     : isom
    MINOR_VERSION   : 512
    encoder         : Lavf61.7.100
  Stream #0:0: Video: wrapped_avframe, yuv420p10le(tv, bt709, progressive), 1920x1080 [SAR 1:1 DAR 16:9], q=2-31, 200 kb/s, 23.98 fps, 23.98 tbn
      Metadata:
        encoder         : Lavc61.19.100 wrapped_avframe
  Stream #0:1(eng): Audio: pcm_s16le, 48000 Hz, stereo, s16, 1536 kb/s (default)
      Metadata:
        HANDLER_NAME    : SoundHandler
        VENDOR_ID       : [0][0][0][0]
        _STATISTICS_TAGS: BPS DURATION NUMBER_OF_FRAMES NUMBER_OF_BYTES
        BPS             : 193339
        DURATION        : 00:23:59.213000000
        NUMBER_OF_FRAMES: 67464
        NUMBER_OF_BYTES : 34782167
        _STATISTICS_WRITING_APP: mkvpropedit v66.0.0 ('Josie') 64-bit
        _STATISTICS_WRITING_DATE_UTC: 2025-07-05 09:33:04
        encoder         : Lavc61.19.100 pcm_s16le
frame=  103 fps=0.0 q=-0.0 size=N/A time=00:00:04.29 bitrate=N/A speed= 8.3x    frame=  256 fps=249 q=-0.0 size=N/A time=00:00:10.67 bitrate=N/A speed=10.4x    frame=  452 fps=290 q=-0.0 size=N/A time=00:00:18.85 bitrate=N/A speed=12.1x    frame=  684 fps=331 q=-0.0 size=N/A time=00:00:28.52 bitrate=N/A speed=13.8x    frame=  901 fps=349 q=-0.0 size=N/A time=00:00:37.57 bitrate=N/A speed=14.6x    frame= 1103 fps=357 q=-0.0 size=N/A time=00:00:46.00 bitrate=N/A speed=14.9x    frame= 1323 fps=366 q=-0.0 size=N/A time=00:00:55.18 bitrate=N/A speed=15.3x    frame= 1533 fps=371 q=-0.0 size=N/A time=00:01:03.93 bitrate=N/A speed=15.5x    frame= 1730 fps=373 q=-0.0 size=N/A time=00:01:12.15 bitrate=N/A speed=15.5x    frame= 1921 fps=372 q=-0.0 size=N/A time=00:01:20.12 bitrate=N/A speed=15.5x    frame= 2129 fps=375 q=-0.0 size=N/A time=00:01:28.79 bitrate=N/A speed=15.6x    frame= 2335 fps=377 q=-0.0 size=N/A time=00:01:37.38 bitrate=N/A speed=15.7x    frame= 2532 fps=378 q=-0.0 size=N/A time=00:01:45.60 bitrate=N/A speed=15.8x    frame= 2787 fps=386 q=-0.0 size=N/A time=00:01:56.24 bitrate=N/A speed=16.1x    frame= 3056 fps=395 q=-0.0 size=N/A time=00:02:07.46 bitrate=N/A speed=16.5x    frame= 3308 fps=401 q=-0.0 size=N/A time=00:02:17.97 bitrate=N/A speed=16.7x    frame= 3567 fps=407 q=-0.0 size=N/A time=00:02:28.77 bitrate=N/A speed=  17x    frame= 3831 fps=412 q=-0.0 size=N/A time=00:02:39.78 bitrate=N/A speed=17.2x    frame= 4090 fps=417 q=-0.0 size=N/A time=00:02:50.58 bitrate=N/A speed=17.4x    frame= 4327 fps=420 q=-0.0 size=N/A time=00:03:00.47 bitrate=N/A speed=17.5x    frame= 4562 fps=421 q=-0.0 size=N/A time=00:03:10.27 bitrate=N/A speed=17.6x    frame= 4843 fps=427 q=-0.0 size=N/A time=00:03:21.99 bitrate=N/A speed=17.8x    frame= 5086 fps=429 q=-0.0 size=N/A time=00:03:32.12 bitrate=N/A speed=17.9x    frame= 5297 fps=428 q=-0.0 size=N/A time=00:03:40.92 bitrate=N/A speed=17.9x    frame= 5521 fps=428 q=-0.0 size=N/A time=00:03:50.27 bitrate=N/A speed=17.8x    frame= 5760 fps=429 q=-0.0 size=N/A time=00:04:00.24 bitrate=N/A speed=17.9x    frame= 5984 fps=430 q=-0.0 size=N/A time=00:04:09.58 bitrate=N/A speed=17.9x    frame= 6218 fps=431 q=-0.0 size=N/A time=00:04:19.34 bitrate=N/A speed=  18x    frame= 6458 fps=432 q=-0.0 size=N/A time=00:04:29.35 bitrate=N/A speed=  18x    frame= 6701 fps=433 q=-0.0 size=N/A time=00:04:39.48 bitrate=N/A speed=18.1x    frame= 6944 fps=434 q=-0.0 size=N/A time=00:04:49.62 bitrate=N/A speed=18.1x    frame= 7205 fps=437 q=-0.0 size=N/A time=00:05:00.50 bitrate=N/A speed=18.2x    frame= 7454 fps=438 q=-0.0 size=N/A time=00:05:10.89 bitrate=N/A speed=18.3x    frame= 7706 fps=439 q=-0.0 size=N/A time=00:05:21.40 bitrate=N/A speed=18.3x    frame= 7967 fps=441 q=-0.0 size=N/A time=00:05:32.29 bitrate=N/A speed=18.4x    frame= 8220 fps=443 q=-0.0 size=N/A time=00:05:42.84 bitrate=N/A speed=18.5x    frame= 8465 fps=444 q=-0.0 size=N/A time=00:05:53.06 bitrate=N/A speed=18.5x    frame= 8665 fps=442 q=-0.0 size=N/A time=00:06:01.40 bitrate=N/A speed=18.4x    frame= 8866 fps=441 q=-0.0 size=N/A time=00:06:09.78 bitrate=N/A speed=18.4x    frame= 9065 fps=439 q=-0.0 size=N/A time=00:06:18.08 bitrate=N/A speed=18.3x    frame= 9273 fps=438 q=-0.0 size=N/A time=00:06:26.76 bitrate=N/A speed=18.3x    frame= 9495 fps=438 q=-0.0 size=N/A time=00:06:36.02 bitrate=N/A speed=18.3x    frame= 9737 fps=439 q=-0.0 size=N/A time=00:06:46.11 bitrate=N/A speed=18.3x    frame= 9989 fps=440 q=-0.0 size=N/A time=00:06:56.62 bitrate=N/A speed=18.4x    frame=10231 fps=441 q=-0.0 size=N/A time=00:07:06.71 bitrate=N/A speed=18.4x    frame=10487 fps=442 q=-0.0 size=N/A time=00:07:17.39 bitrate=N/A speed=18.4x    frame=10739 fps=443 q=-0.0 size=N/A time=00:07:27.90 bitrate=N/A speed=18.5x    frame=10983 fps=444 q=-0.0 size=N/A time=00:07:38.08 bitrate=N/A speed=18.5x    frame=11246 fps=445 q=-0.0 size=N/A time=00:07:49.05 bitrate=N/A speed=18.6x    frame=11500 fps=446 q=-0.0 size=N/A time=00:07:59.64 bitrate=N/A speed=18.6x    frame=11753 fps=447 q=-0.0 size=N/A time=00:08:10.19 bitrate=N/A speed=18.6x    frame=12020 fps=448 q=-0.0 size=N/A time=00:08:21.33 bitrate=N/A speed=18.7x    frame=12259 fps=449 q=-0.0 size=N/A time=00:08:31.30 bitrate=N/A speed=18.7x    frame=12498 fps=449 q=-0.0 size=N/A time=00:08:41.27 bitrate=N/A speed=18.7x    frame=12759 fps=450 q=-0.0 size=N/A time=00:08:52.15 bitrate=N/A speed=18.8x    frame=13000 fps=450 q=-0.0 size=N/A time=00:09:02.20 bitrate=N/A speed=18.8x    frame=13254 fps=451 q=-0.0 size=N/A time=00:09:12.80 bitrate=N/A speed=18.8x    frame=13501 fps=451 q=-0.0 size=N/A time=00:09:23.10 bitrate=N/A speed=18.8x    frame=13737 fps=451 q=-0.0 size=N/A time=00:09:32.94 bitrate=N/A speed=18.8x    frame=14004 fps=453 q=-0.0 size=N/A time=00:09:44.08 bitrate=N/A speed=18.9x    frame=14268 fps=454 q=-0.0 size=N/A time=00:09:55.09 bitrate=N/A speed=18.9x    frame=14517 fps=454 q=-0.0 size=N/A time=00:10:05.47 bitrate=N/A speed=18.9x    frame=14714 fps=453 q=-0.0 size=N/A time=00:10:13.69 bitrate=N/A speed=18.9x    frame=14931 fps=452 q=-0.0 size=N/A time=00:10:22.74 bitrate=N/A speed=18.9x    frame=15176 fps=453 q=-0.0 size=N/A time=00:10:32.96 bitrate=N/A speed=18.9x    frame=15423 fps=453 q=-0.0 size=N/A time=00:10:43.26 bitrate=N/A speed=18.9x    frame=15681 fps=454 q=-0.0 size=N/A time=00:10:54.02 bitrate=N/A speed=18.9x    frame=15943 fps=455 q=-0.0 size=N/A time=00:11:04.95 bitrate=N/A speed=  19x    frame=16177 fps=455 q=-0.0 size=N/A time=00:11:14.71 bitrate=N/A speed=  19x    frame=16444 fps=455 q=-0.0 size=N/A time=00:11:25.85 bitrate=N/A speed=  19x    frame=16720 fps=457 q=-0.0 size=N/A time=00:11:37.36 bitrate=N/A speed=  19x    frame=16981 fps=457 q=-0.0 size=N/A time=00:11:48.24 bitrate=N/A speed=19.1x    frame=17230 fps=458 q=-0.0 size=N/A time=00:11:58.63 bitrate=N/A speed=19.1x    frame=17481 fps=458 q=-0.0 size=N/A time=00:12:09.10 bitrate=N/A speed=19.1x    frame=17722 fps=458 q=-0.0 size=N/A time=00:12:19.15 bitrate=N/A speed=19.1x    frame=17980 fps=459 q=-0.0 size=N/A time=00:12:29.91 bitrate=N/A speed=19.1x    frame=18256 fps=460 q=-0.0 size=N/A time=00:12:41.42 bitrate=N/A speed=19.2x    frame=18514 fps=460 q=-0.0 size=N/A time=00:12:52.18 bitrate=N/A speed=19.2x    frame=18773 fps=461 q=-0.0 size=N/A time=00:13:02.99 bitrate=N/A speed=19.2x    frame=19021 fps=461 q=-0.0 size=N/A time=00:13:13.33 bitrate=N/A speed=19.2x    frame=19252 fps=461 q=-0.0 size=N/A time=00:13:22.96 bitrate=N/A speed=19.2x    frame=19467 fps=460 q=-0.0 size=N/A time=00:13:31.93 bitrate=N/A speed=19.2x    frame=19706 fps=460 q=-0.0 size=N/A time=00:13:41.90 bitrate=N/A speed=19.2x    frame=19964 fps=461 q=-0.0 size=N/A time=00:13:52.66 bitrate=N/A speed=19.2x    frame=20220 fps=461 q=-0.0 size=N/A time=00:14:03.34 bitrate=N/A speed=19.2x    frame=20470 fps=461 q=-0.0 size=N/A time=00:14:13.76 bitrate=N/A speed=19.2x    frame=20685 fps=461 q=-0.0 size=N/A time=00:14:22.73 bitrate=N/A speed=19.2x    frame=20903 fps=461 q=-0.0 size=N/A time=00:14:31.82 bitrate=N/A speed=19.2x    frame=21148 fps=461 q=-0.0 size=N/A time=00:14:42.04 bitrate=N/A speed=19.2x    frame=21372 fps=460 q=-0.0 size=N/A time=00:14:51.39 bitrate=N/A speed=19.2x    frame=21610 fps=460 q=-0.0 size=N/A time=00:15:01.31 bitrate=N/A speed=19.2x    frame=21875 fps=461 q=-0.0 size=N/A time=00:15:12.36 bitrate=N/A speed=19.2x    frame=22106 fps=461 q=-0.0 size=N/A time=00:15:22.00 bitrate=N/A speed=19.2x    frame=22346 fps=461 q=-0.0 size=N/A time=00:15:32.01 bitrate=N/A speed=19.2x    frame=22574 fps=461 q=-0.0 size=N/A time=00:15:41.52 bitrate=N/A speed=19.2x    frame=22840 fps=461 q=-0.0 size=N/A time=00:15:52.61 bitrate=N/A speed=19.2x    frame=23117 fps=462 q=-0.0 size=N/A time=00:16:04.17 bitrate=N/A speed=19.3x    frame=23365 fps=462 q=-0.0 size=N/A time=00:16:14.51 bitrate=N/A speed=19.3x    frame=23574 fps=462 q=-0.0 size=N/A time=00:16:23.23 bitrate=N/A speed=19.3x    frame=23819 fps=462 q=-0.0 size=N/A time=00:16:33.45 bitrate=N/A speed=19.3x    frame=24058 fps=462 q=-0.0 size=N/A time=00:16:43.41 bitrate=N/A speed=19.3x    frame=24303 fps=462 q=-0.0 size=N/A time=00:16:53.63 bitrate=N/A speed=19.3x    frame=24556 fps=462 q=-0.0 size=N/A time=00:17:04.18 bitrate=N/A speed=19.3x    frame=24815 fps=463 q=-0.0 size=N/A time=00:17:14.99 bitrate=N/A speed=19.3x    frame=25071 fps=463 q=-0.0 size=N/A time=00:17:25.66 bitrate=N/A speed=19.3x    frame=25310 fps=463 q=-0.0 size=N/A time=00:17:35.63 bitrate=N/A speed=19.3x    frame=25546 fps=463 q=-0.0 size=N/A time=00:17:45.48 bitrate=N/A speed=19.3x    frame=25807 fps=463 q=-0.0 size=N/A time=00:17:56.36 bitrate=N/A speed=19.3x    frame=26051 fps=463 q=-0.0 size=N/A time=00:18:06.54 bitrate=N/A speed=19.3x    frame=26251 fps=463 q=-0.0 size=N/A time=00:18:14.88 bitrate=N/A speed=19.3x    frame=26491 fps=463 q=-0.0 size=N/A time=00:18:24.89 bitrate=N/A speed=19.3x    frame=26751 fps=463 q=-0.0 size=N/A time=00:18:35.73 bitrate=N/A speed=19.3x    frame=26994 fps=463 q=-0.0 size=N/A time=00:18:45.87 bitrate=N/A speed=19.3x    frame=27241 fps=463 q=-0.0 size=N/A time=00:18:56.17 bitrate=N/A speed=19.3x    frame=27489 fps=463 q=-0.0 size=N/A time=00:19:06.52 bitrate=N/A speed=19.3x    frame=27752 fps=464 q=-0.0 size=N/A time=00:19:17.48 bitrate=N/A speed=19.3x    frame=27983 fps=464 q=-0.0 size=N/A time=00:19:27.12 bitrate=N/A speed=19.3x    frame=28242 fps=464 q=-0.0 size=N/A time=00:19:37.92 bitrate=N/A speed=19.4x    frame=28501 fps=464 q=-0.0 size=N/A time=00:19:48.72 bitrate=N/A speed=19.4x    frame=28750 fps=464 q=-0.0 size=N/A time=00:19:59.11 bitrate=N/A speed=19.4x    frame=28990 fps=465 q=-0.0 size=N/A time=00:20:09.12 bitrate=N/A speed=19.4x    frame=29243 fps=465 q=-0.0 size=N/A time=00:20:19.71 bitrate=N/A speed=19.4x    frame=29494 fps=465 q=-0.0 size=N/A time=00:20:30.14 bitrate=N/A speed=19.4x    frame=29750 fps=465 q=-0.0 size=N/A time=00:20:40.82 bitrate=N/A speed=19.4x    frame=30004 fps=465 q=-0.0 size=N/A time=00:20:51.41 bitrate=N/A speed=19.4x    frame=30264 fps=466 q=-0.0 size=N/A time=00:21:02.26 bitrate=N/A speed=19.4x    frame=30522 fps=466 q=-0.0 size=N/A time=00:21:13.02 bitrate=N/A speed=19.4x    frame=30778 fps=466 q=-0.0 size=N/A time=00:21:23.74 bitrate=N/A speed=19.4x    frame=31038 fps=467 q=-0.0 size=N/A time=00:21:34.54 bitrate=N/A speed=19.5x    frame=31282 fps=466 q=-0.0 size=N/A time=00:21:44.72 bitrate=N/A speed=19.5x    frame=31513 fps=466 q=-0.0 size=N/A time=00:21:54.35 bitrate=N/A speed=19.5x    frame=31743 fps=466 q=-0.0 size=N/A time=00:22:03.94 bitrate=N/A speed=19.4x    frame=31990 fps=466 q=-0.0 size=N/A time=00:22:14.24 bitrate=N/A speed=19.5x    frame=32237 fps=466 q=-0.0 size=N/A time=00:22:24.55 bitrate=N/A speed=19.5x    frame=32479 fps=466 q=-0.0 size=N/A time=00:22:34.64 bitrate=N/A speed=19.5x    frame=32679 fps=466 q=-0.0 size=N/A time=00:22:42.98 bitrate=N/A speed=19.4x    frame=32883 fps=465 q=-0.0 size=N/A time=00:22:51.49 bitrate=N/A speed=19.4x    frame=33089 fps=465 q=-0.0 size=N/A time=00:23:00.08 bitrate=N/A speed=19.4x    frame=33299 fps=464 q=-0.0 size=N/A time=00:23:08.84 bitrate=N/A speed=19.4x    frame=33544 fps=465 q=-0.0 size=N/A time=00:23:19.06 bitrate=N/A speed=19.4x    frame=33749 fps=464 q=-0.0 size=N/A time=00:23:27.61 bitrate=N/A speed=19.4x    frame=33975 fps=464 q=-0.0 size=N/A time=00:23:37.04 bitrate=N/A speed=19.3x    frame=34203 fps=464 q=-0.0 size=N/A time=00:23:46.55 bitrate=N/A speed=19.3x    frame=34425 fps=464 q=-0.0 size=N/A time=00:23:55.80 bitrate=N/A speed=19.3x    [Parsed_psnr_10 @ 00000289131ef180] PSNR y:47.704316 u:50.526904 v:50.042893 average:48.405257 min:28.652466 max:inf
[out#0/null @ 000002890c53c040] video:14827KiB audio:269856KiB subtitle:0KiB other streams:0KiB global headers:0KiB muxing overhead: unknown
frame=34506 fps=464 q=-0.0 Lsize=N/A time=00:23:59.18 bitrate=N/A speed=19.3x    
